# xmcd
#
# Track frame offsets:
#	150
#	7541
#	27381
#	52085
#	77094
#	103155
#	119767
#	146396
#	166336
#	181465
#	205054
#	226780
#	249397
#	271182
#	285335
#	306416
#
# Disc length: 4273 seconds
#
# Revision: 0
# Processed by: cddbd v1.5.1PL2 Copyright (c) Steve Scherf et al.
# Submitted via: EasyCDDAExtractor 9.0.0.1
#
DISCID=d310af10
DTITLE=Ozzy Osbourne - Coliseum New Haven 03-04-82 Source 2
DYEAR=1982
DGENRE=Hard Rock
TTITLE0=Intro
TTITLE1=Over The Mountain
TTITLE2=Mr Crowley
TTITLE3=Crazy Train
TTITLE4=Revelation (Mother Earth)
TTITLE5=Steal Away (The NIght)
TTITLE6=Suicide Solution
TTITLE7=Guitar Solo
TTITLE8=Drum Solo
TTITLE9=Goodbye To Romance
TTITLE10=I Don't Know
TTITLE11=Believer
TTITLE12=Flying High Again
TTITLE13=Iron Man
TTITLE14=Children Of The Grave
TTITLE15=Paranoid
EXTD=
EXTT0=
EXTT1=
EXTT2=
EXTT3=
EXTT4=
EXTT5=
EXTT6=
EXTT7=
EXTT8=
EXTT9=
EXTT10=
EXTT11=
EXTT12=
EXTT13=
EXTT14=
EXTT15=
PLAYORDER=
